<?xml version="1.0" standalone="no"?>
<!DOCTYPE svg PUBLIC "-//W3C//DTD SVG 20010904//EN"
 "http://www.w3.org/TR/2001/REC-SVG-20010904/DTD/svg10.dtd">
<svg version="1.0" xmlns="http://www.w3.org/2000/svg"
 width="512.000000pt" height="512.000000pt" viewBox="0 0 512.000000 512.000000"
 preserveAspectRatio="xMidYMid meet">

<g transform="translate(0.000000,512.000000) scale(0.100000,-0.100000)"
fill="#000000" stroke="none">
<path d="M1 2618 c0 -1377 4 -2494 8 -2483 5 11 19 29 31 40 20 18 39 20 191
23 l169 3 2 2099 3 2100 28 27 27 28 270 3 269 3 3 298 c3 283 4 300 23 321
11 12 29 26 40 31 11 4 -224 8 -522 8 l-543 1 1 -2502z"/>
<path d="M3735 5111 c11 -5 29 -19 40 -31 19 -21 20 -38 23 -321 l3 -298 269
-3 270 -3 27 -28 28 -27 3 -2100 2 -2099 170 -3 170 -3 27 -27 c49 -49 32
-132 -32 -159 -11 -4 67 -8 183 -8 l202 -1 0 2560 0 2560 -702 -1 c-387 0
-694 -4 -683 -8z"/>
<path d="M1200 4690 l0 -230 1200 0 1200 0 0 230 0 230 -1200 0 -1200 0 0
-230z"/>
<path d="M600 2230 l0 -2030 600 0 600 0 2 600 3 600 28 27 27 28 540 0 540 0
27 -28 28 -27 3 -600 2 -600 600 0 600 0 0 2030 0 2030 -1800 0 -1800 0 0
-2030z m967 1597 l28 -27 0 -340 0 -340 -28 -27 -27 -28 -340 0 -340 0 -27 28
-28 27 0 339 c0 325 1 340 20 361 11 12 29 26 40 31 11 4 167 7 347 6 l328 -2
27 -28z m1200 0 l28 -27 0 -340 0 -340 -28 -27 -27 -28 -340 0 -340 0 -27 28
-28 27 0 339 c0 325 1 340 20 361 11 12 29 26 40 31 11 4 167 7 347 6 l328 -2
27 -28z m1200 0 l28 -27 0 -340 0 -340 -28 -27 -27 -28 -340 0 -340 0 -27 28
-28 27 0 339 c0 325 1 340 20 361 11 12 29 26 40 31 11 4 167 7 347 6 l328 -2
27 -28z m-2400 -1200 l28 -27 0 -340 0 -340 -28 -27 -27 -28 -340 0 -340 0
-27 28 -28 27 0 339 c0 325 1 340 20 361 11 12 29 26 40 31 11 4 167 7 347 6
l328 -2 27 -28z m1200 0 l28 -27 0 -340 0 -340 -28 -27 -27 -28 -340 0 -340 0
-27 28 -28 27 0 339 c0 325 1 340 20 361 11 12 29 26 40 31 11 4 167 7 347 6
l328 -2 27 -28z m1200 0 l28 -27 0 -340 0 -340 -28 -27 -27 -28 -340 0 -340 0
-27 28 -28 27 0 339 c0 325 1 340 20 361 11 12 29 26 40 31 11 4 167 7 347 6
l328 -2 27 -28z m-2400 -1200 l28 -27 0 -340 0 -340 -28 -27 -27 -28 -340 0
-340 0 -27 28 -28 27 0 339 c0 325 1 340 20 361 11 12 29 26 40 31 11 4 167 7
347 6 l328 -2 27 -28z m2400 0 l28 -27 0 -340 0 -340 -28 -27 -27 -28 -340 0
-340 0 -27 28 -28 27 0 339 c0 325 1 340 20 361 11 12 29 26 40 31 11 4 167 7
347 6 l328 -2 27 -28z"/>
<path d="M1000 3460 l0 -200 200 0 200 0 0 200 0 200 -200 0 -200 0 0 -200z"/>
<path d="M2200 3460 l0 -200 200 0 200 0 0 200 0 200 -200 0 -200 0 0 -200z"/>
<path d="M3400 3460 l0 -200 200 0 200 0 0 200 0 200 -200 0 -200 0 0 -200z"/>
<path d="M1000 2260 l0 -200 200 0 200 0 0 200 0 200 -200 0 -200 0 0 -200z"/>
<path d="M2200 2260 l0 -200 200 0 200 0 0 200 0 200 -200 0 -200 0 0 -200z"/>
<path d="M3400 2260 l0 -200 200 0 200 0 0 200 0 200 -200 0 -200 0 0 -200z"/>
<path d="M1000 1060 l0 -200 200 0 200 0 0 200 0 200 -200 0 -200 0 0 -200z"/>
<path d="M3400 1060 l0 -200 200 0 200 0 0 200 0 200 -200 0 -200 0 0 -200z"/>
<path d="M2000 730 l0 -530 149 0 150 0 3 200 3 200 28 27 c38 38 96 38 134 0
l28 -27 3 -200 3 -200 150 0 149 0 0 530 0 530 -400 0 -400 0 0 -530z m470
295 c35 -36 34 -95 -3 -132 -60 -61 -162 -19 -162 66 0 89 101 130 165 66z"/>
<path d="M1 43 l-1 -43 43 1 c23 0 35 3 27 6 -23 9 -51 36 -61 58 -6 15 -8 10
-8 -22z"/>
</g>
</svg>
